<?xml version="1.0" encoding="UTF-8"?>
<svg width="14px" height="14px" viewBox="0 0 14 14" version="1.1" xmlns="http://www.w3.org/2000/svg" xmlns:xlink="http://www.w3.org/1999/xlink">
    <defs>
        <polygon id="path-1" points="0.0002 0.0002 14 0.0002 14 14 0.0002 14"></polygon>
    </defs>
    <g id="Page-1" stroke="none" stroke-width="1" fill="none" fill-rule="evenodd">
        <g id="分组-copy-6">
            <g id="分组">
                <mask id="mask-2" fill="white">
                    <use xlink:href="#path-1"></use>
                </mask>
                <g id="Clip-2"></g>
                <path d="M7.0002,0.0002 C3.1342,0.0002 0.0002,3.1342 0.0002,7.0002 C0.0002,10.8662 3.1342,14.0002 7.0002,14.0002 C10.8662,14.0002 14.0002,10.8662 14.0002,7.0002 C14.0002,3.1342 10.8662,0.0002 7.0002,0.0002 M7.0002,1.0002 C10.3082,1.0002 13.0002,3.6912 13.0002,7.0002 C13.0002,10.3082 10.3082,13.0002 7.0002,13.0002 C3.6912,13.0002 1.0002,10.3082 1.0002,7.0002 C1.0002,3.6912 3.6912,1.0002 7.0002,1.0002" id="Fill-1" fill="#888890" mask="url(#mask-2)"></path>
            </g>
            <path d="M6.947,10.5403 C6.608,10.5403 6.33,10.2623 6.33,9.9223 C6.33,9.5833 6.608,9.3053 6.947,9.3053 C7.287,9.3053 7.565,9.5833 7.565,9.9223 C7.565,10.2623 7.287,10.5403 6.947,10.5403" id="Fill-3" fill="#888890"></path>
            <path d="M8.7097,4.0046 C8.2977,3.6346 7.7517,3.4596 7.0837,3.4596 C6.3217,3.4596 5.7247,3.6756 5.2827,4.1076 C4.9857,4.3906 4.7917,4.7436 4.6917,5.1666 C4.6907,5.1716 4.6917,5.1736 4.6917,5.1776 C4.6807,5.2226 4.6727,5.2676 4.6727,5.3156 C4.6727,5.6356 4.9357,5.8986 5.2557,5.8986 C5.5397,5.8986 5.7767,5.6926 5.8277,5.4236 C5.8677,5.2106 5.9387,5.0316 6.0437,4.8896 C6.2397,4.6016 6.5587,4.4676 7.0117,4.4676 C7.3607,4.4676 7.6387,4.5606 7.8347,4.7566 C8.0197,4.9516 8.1227,5.2196 8.1227,5.5586 C8.1227,5.8166 8.0297,6.0636 7.8447,6.2896 L7.7217,6.4336 C7.0527,7.0306 6.6507,7.4626 6.5177,7.7406 C6.4547,7.8626 6.4067,7.9966 6.3737,8.1406 C6.3717,8.1476 6.3737,8.1536 6.3727,8.1606 C6.3617,8.2056 6.3547,8.2526 6.3547,8.3006 C6.3547,8.6266 6.6217,8.8936 6.9467,8.8936 C7.2287,8.8936 7.4647,8.6936 7.5247,8.4296 C7.5257,8.4276 7.5277,8.4266 7.5277,8.4246 C7.5537,8.3046 7.5937,8.1916 7.6487,8.0806 C7.7417,7.8956 7.8757,7.7206 8.0617,7.5666 C8.5547,7.1336 8.8537,6.8556 8.9457,6.7526 C9.1927,6.4236 9.3267,6.0016 9.3267,5.4866 C9.3267,4.8586 9.1207,4.3646 8.7097,4.0046" id="Fill-5" fill="#888890"></path>
        </g>
    </g>
</svg>